<svg id="Layer_1" data-name="Layer 1" xmlns="http://www.w3.org/2000/svg" viewBox="0 0 740.51 241.63"><defs><style>.cls-1,.cls-4{font-size:132.95px;fill:#fff;font-family:TrajanPro-Bold, Trajan Pro;font-weight:700;}.cls-1{letter-spacing:0.01em;}.cls-2{letter-spacing:0.02em;}.cls-3{letter-spacing:0em;}.cls-5{letter-spacing:-0.01em;}.cls-6{letter-spacing:0em;}.cls-7{fill:none;}.cls-8{fill:#fbb03b;}.cls-9{fill:#c69c6d;}.cls-10{fill:#662d91;}.cls-11{fill:#534741;}.cls-12{fill:#65c8d0;}.cls-13{fill:#ba9bc9;}.cls-14{fill:#1b1464;}.cls-15{fill:#9e005d;}.cls-16{fill:#c7b299;}.cls-17{fill:#d9e021;}.cls-18{fill:#f7931e;}.cls-19{fill:#8cc63f;}.cls-20{fill:#93278f;}.cls-21{fill:#22b573;}</style></defs><title>logomh</title><text class="cls-1" transform="translate(0 203.87) scale(0.81 1)">M<tspan class="cls-2" x="140" y="0">A</tspan><tspan class="cls-3" x="235.72" y="0">M</tspan></text><text class="cls-4" transform="translate(372.16 203.87) scale(0.81 1)">FO<tspan class="cls-5" x="205.94" y="0">O</tspan><tspan class="cls-6" x="327.86" y="0">D</tspan></text><path d="M545.09,442.52a1.16,1.16,0,0,1-.49-.34Z" transform="translate(-179.49 -421.05)"/><path d="M544,440.9a2.7,2.7,0,0,0,.62,1.28l-1.85-1.28a4.76,4.76,0,0,0,1,1.69,4.22,4.22,0,0,1-1.22-1.35c-.71-.27.53,1.93.53,1.93l-1-.24c.23,4.61-1.53,7.08-1.53,7.08.55.35,1.16-.24,1.22-.3a1.79,1.79,0,0,1-1.12,1.08c-.34,2,2.1,4.37,2.1,4.37C544.07,456.68,541,457,541,457a1.33,1.33,0,0,0-.61,1.76c.25,1.06-.9,1.13-.9,1.13-.32.16,0,.3,0,.3a1,1,0,0,1,0,1.51c-1.08.43-1,.79-1,.79.54.48.16,1.63.16,1.63-1.9,4.15-8.58,1.08-8.58,1.08a2.72,2.72,0,0,0-2.7,1.09H521a10.77,10.77,0,0,0-1.2-3.79,10.44,10.44,0,0,0-1.09-1.65c-.16-.2-.32-.38-.47-.54a9.89,9.89,0,0,0-.72-.71,8.19,8.19,0,0,1-6.57-3.93c-.22-.22-.42-.43-.61-.66l-.13-.15c-5.94-7-1.36-17.08-1.36-17.08-.88-.54-2.5,2-2.5,2l-.48,6.57a6.58,6.58,0,0,1-4.81,5.56l-.23.06a12.09,12.09,0,0,1-5.53-.07c3.83-3.24,1.26-7.69-1.18-10.54l0,0a24.5,24.5,0,0,0-2.8-2.77c-2.93-13.53,4.78-16.66,9.53-17.34h0a16.07,16.07,0,0,1,3.37-.14,9.34,9.34,0,0,1,6.1,2.5l.15.16a7,7,0,0,1,1.84,4.69l.27.14a.59.59,0,0,1,.88.2h.37a23,23,0,0,1,5.81-2.21l.2,0a18.19,18.19,0,0,1,9.53.43l.58.2a16.2,16.2,0,0,1,5,2.8,7.79,7.79,0,0,1,3.57.76l.07,0c4.95,2.41,6.86,9.46,6.86,9.46a2.69,2.69,0,0,0,2.57,1.39A4.57,4.57,0,0,1,544,440.9Z" transform="translate(-179.49 -421.05)"/><path d="M529.75,616.5a2.09,2.09,0,0,1-.69-.49C528.9,615.3,529.75,616.5,529.75,616.5Z" transform="translate(-179.49 -421.05)"/><path d="M559.07,576.57c-3.68,2-11,3.74-16.56,4.9l-.2,0c-4.07.84-7.17,1.34-7.17,1.34l-4.46,3-.42.28-5.74,3.8.64,11.46h0l0,.82.22,3.87c1,6.62,2.71,9.09,3.65,10a9.08,9.08,0,0,0,.54,1.39,6.66,6.66,0,0,0,.42.78l.13.19c1.55,2.29,4.24,3.26,4.29,3.52.4,2.4-1.24,2.3-1.24,2.3l-5,0h-.86l-6.18-7.28h-.6l.45,7c-.4.9-.75.1-.75.1l-.72-5-.1-.67h0l-.23-1.54c-3.39-3.19.8-7.18.8-7.18.2-8.37-2.39-13.56-2.39-13.56l-.73.76-.66.69-8.4,8.73c-7.39,8.77-5.77,15.35-5.77,15.35.44,2.41-.21,3-.88,3a2.43,2.43,0,0,1-1.12-.36,18.78,18.78,0,0,1-2.16-1.65l-.1-.09c-3.64-3.32-1.72-5.23-1.72-5.23a44.94,44.94,0,0,0,.6-6.61c.45-1.35-1-1-1-1L491.42,615c-.95.45-.7-.3-.7-.3l6.28-9a12.48,12.48,0,0,0,7.79-4.11l.23-.29a4.89,4.89,0,0,0,.35-.53,61.53,61.53,0,0,1,10.32-14.21c1.2-2.84-.15-4.19-.15-4.19q-2.18,0-4.15-.12h-.13a58.16,58.16,0,0,1-9.74-1.37l-.16,0a31.47,31.47,0,0,1-8.26-2.95l3.59-14.8-2.06-.89-.07,0-1.46-.63c.3-3.85,4.33-10.78,6.39-14.09l.18-.29c.61-1,1-1.58,1-1.58l-2.79-2.79a116.57,116.57,0,0,1,8.23-15.14l.17-.27c9.51-14.67,18.71-21.28,18.71-21.28a134.29,134.29,0,0,1-5.09-19.42l0-.17c-2.72-16,1.13-20.29,1.13-20.29h6.33l.3,5.48a26.23,26.23,0,0,1,8.58,5.48l.39.42a6.39,6.39,0,0,1,.75,1c2.48,0,1.46,9.8.7,15.27-.29,2.11-.55,3.58-.55,3.58-.18.91-.32,1.78-.43,2.6a33.74,33.74,0,0,0-.28,5.91l0,.35a16.62,16.62,0,0,0,.24,2.21l4.4,13.62.21.66,4.79,14.83h0l.16.49,5,15.48.09.29Z" transform="translate(-179.49 -421.05)"/><path d="M625.79,492.21l0,2.23c-.88,4.05-8,7.24-8,7.24l-3.51.18-1.16.06-8.78.46-1.24.06-9.19.48-.75,0-1.22.06c-6,1.37-6.91-3.59-6.91-3.59l-.09,0-1,.21-15.08,3.19-.2,0-2.3.49c-1.23,1.94-6.17,1.87-8.61,1.7l-.32,0c-.66-.05-1.07-.1-1.07-.1-5.31-2.51.26-4.6.26-4.6,2.21-1.63,0-2.11,0-2.11l-6.88.63h0l-.45,0-10.26.95h-.14l-1.75.16-7.36.68a4,4,0,0,1-.87-2h0a4.16,4.16,0,0,1,1-3.05h0a10.58,10.58,0,0,1,2.87-2.42c.33.34,2.43.53,5.32.62.86,0,1.79,0,2.77.06H541c3.13,0,6.73,0,10-.05h.43c5-.09,9-.23,9-.23.26,0,.53,0,.8.05l.31,0c3.7.53,8,3.17,8,3.17l1.11-.11.2,0,13.41-1.26.41-.21.68-.32a41.11,41.11,0,0,1,11.17-2.91l.77-.1c3-.38,6.19-.58,9.24-.65l1.23,0c3.08,0,6,0,8.59.15l1.12.05C622.43,491.8,625.79,492.21,625.79,492.21Z" transform="translate(-179.49 -421.05)"/><line class="cls-7" x1="319.65" y1="203.49" x2="317.76" y2="203.49"/><line class="cls-7" x1="340.18" y1="203.49" x2="328.14" y2="203.49"/><line class="cls-7" x1="348.59" y1="203.49" x2="348.4" y2="203.49"/><line class="cls-7" x1="471.29" y1="203.49" x2="363.54" y2="203.49"/><line class="cls-7" x1="313.62" y1="203.49" x2="219.01" y2="203.49"/><path class="cls-8" d="M500.91,421.22l-6.75,20.15a24.45,24.45,0,0,0-2.82-2.81C488.4,425,496.17,421.88,500.91,421.22Z" transform="translate(-179.49 -421.05)"/><path class="cls-9" d="M519.9,426.5,510.37,455c-6.14-7-1.49-17.23-1.49-17.23-.88-.54-2.5,2-2.5,2l-.48,6.57a6.58,6.58,0,0,1-4.81,5.56l-.23.06,9.51-28.4.15.16a7,7,0,0,1,1.84,4.69l.27.14a.59.59,0,0,1,.88.2h.37A22.91,22.91,0,0,1,519.9,426.5Z" transform="translate(-179.49 -421.05)"/><path class="cls-10" d="M530,427.13l-11.28,33.68a10.76,10.76,0,0,0-1.19-1.25,8.19,8.19,0,0,1-6.57-3.93c-.22-.22-.42-.43-.61-.66l-.13-.15,9.47-28.27.2,0A18.22,18.22,0,0,1,530,427.13Z" transform="translate(-179.49 -421.05)"/><path class="cls-8" d="M544.6,442.18l.49.34A1.16,1.16,0,0,1,544.6,442.18Z" transform="translate(-179.49 -421.05)"/><path class="cls-8" d="M544,440.9a2.7,2.7,0,0,0,.62,1.28l-1.85-1.28a4.76,4.76,0,0,0,1,1.69,4.22,4.22,0,0,1-1.22-1.35c-.71-.27.53,1.93.53,1.93l-1-.24c.23,4.61-1.53,7.08-1.53,7.08.55.35,1.16-.24,1.22-.3a1.79,1.79,0,0,1-1.12,1.08c-.34,2,2.1,4.37,2.1,4.37C544.07,456.68,541,457,541,457a1.33,1.33,0,0,0-.61,1.76c.25,1.06-.9,1.13-.9,1.13-.32.16,0,.3,0,.3a1,1,0,0,1,0,1.51c-1.08.43-1,.79-1,.79.54.48.16,1.63.16,1.63-1.9,4.15-8.58,1.08-8.58,1.08a2.72,2.72,0,0,0-2.7,1.09l.3,5.48a26.23,26.23,0,0,1,8.58,5.48l-6.07,18.12h0l-1.25,3.73h0L501.53,580.9a31.69,31.69,0,0,1-8.42-3l3.59-14.8-2.06-.89-.07,0,4.93-14.72.77-2.29,5.86-17.51.17-.27c9.51-14.67,18.71-21.28,18.71-21.28a134.29,134.29,0,0,1-5.09-19.42l0-.17,6.8-20.29,11.91-35.56.07,0c4.95,2.41,6.86,9.46,6.86,9.46a2.69,2.69,0,0,0,2.57,1.39A4.57,4.57,0,0,1,544,440.9Z" transform="translate(-179.49 -421.05)"/><path class="cls-11" d="M533.2,624.18l-5,0,1.93-5.77c1.55,2.29,4.24,3.26,4.29,3.52C534.84,624.29,533.2,624.18,533.2,624.18Z" transform="translate(-179.49 -421.05)"/><path class="cls-11" d="M559.07,576.57c-3.68,2-11,3.74-16.56,4.9l9.24-27.58Z" transform="translate(-179.49 -421.05)"/><path class="cls-11" d="M586.13,495.8l-1.22,3.66-16.08,3.4,2-6.08,13.41-1.26.41-.21Z" transform="translate(-179.49 -421.05)"/><path class="cls-12" d="M529.75,616.5a2.09,2.09,0,0,1-.69-.49C528.9,615.3,529.75,616.5,529.75,616.5Z" transform="translate(-179.49 -421.05)"/><path class="cls-12" d="M530,618.18l-2,6h-.67l-6.18-7.28h-.6l.45,7c-.4.9-.75.1-.75.1l-.72-5-.1-.67h0l5.7-17,0,.82.22,3.87c1,6.62,2.71,9.09,3.65,10a9.08,9.08,0,0,0,.54,1.39A6.66,6.66,0,0,0,530,618.18Z" transform="translate(-179.49 -421.05)"/><path class="cls-12" d="M551.65,553.61l-9.34,27.91c-4.07.84-7.17,1.34-7.17,1.34l-4.46,3-.42.28,16.22-48.45.16.49Z" transform="translate(-179.49 -421.05)"/><path class="cls-12" d="M570.66,496.81l-2,6.1-2.3.49c-1.23,1.94-6.17,1.87-8.61,1.7l-.32,0,3.81-11.37.31,0c3.7.53,8,3.17,8,3.17Z" transform="translate(-179.49 -421.05)"/><path class="cls-13" d="M541.7,522.8l5,15.32-16,47.68-6.16,4.08.68,12.29L519.56,619l-.32-2.22c-3.39-3.19.8-7.18.8-7.18.2-8.37-2.39-13.56-2.39-13.56l-.73.76-.66.69,25.23-75.36Z" transform="translate(-179.49 -421.05)"/><path class="cls-13" d="M561.5,493.75l-3.8,11.35c-.84-.06-1.39-.13-1.39-.13-5.31-2.51.26-4.6.26-4.6,2.21-1.63,0-2.11,0-2.11l-6.88.63h0l-.45,0,1.69-5.05h.43c5-.09,9-.23,9-.23A9.54,9.54,0,0,1,561.5,493.75Z" transform="translate(-179.49 -421.05)"/><path class="cls-14" d="M537.08,508.53l4.61,14.28-24.78,74-9.06,9.42c-7.39,8.77-5.77,15.35-5.77,15.35.44,2.41-.21,3-.88,3a2.43,2.43,0,0,1-1.12-.36,18.78,18.78,0,0,1-2.16-1.65l-.1-.09,7-20.81.23-.29a4.89,4.89,0,0,0,.35-.53,61.53,61.53,0,0,1,10.32-14.21c1.2-2.84-.15-4.19-.15-4.19q-2.18,0-4.15-.12h-.13L536.82,506l0,.35A16.62,16.62,0,0,0,537.08,508.53Z" transform="translate(-179.49 -421.05)"/><path class="cls-14" d="M551.38,493.88l-1.68,5h0l-10.71,1h-.14l2-6H541C544.26,494,548,493.94,551.38,493.88Z" transform="translate(-179.49 -421.05)"/><path class="cls-15" d="M505,601.33l-7.1,21.2c-3.77-3.38-1.82-5.33-1.82-5.33a44.94,44.94,0,0,0,.6-6.61c.45-1.35-1-1-1-1L491.42,615c-.95.45-.7-.3-.7-.3l6.28-9C501.85,604.92,504.2,602.43,505,601.33Z" transform="translate(-179.49 -421.05)"/><path class="cls-15" d="M541,493.94l-2,5.95-2.15,6.43-25.44,76a58.4,58.4,0,0,1-9.87-1.38l-.16,0,27.5-82.12h0l1-3.05h0L536,477.43l.63.21a6.39,6.39,0,0,1,.75,1c2.48,0,1.46,9.8.7,15.27C539,493.91,540,493.93,541,493.94Z" transform="translate(-179.49 -421.05)"/><path class="cls-16" d="M493.11,561.57c.31-4,4.58-11.2,6.57-14.38l-5,15Z" transform="translate(-179.49 -421.05)"/><path class="cls-16" d="M497.9,542.82a116.9,116.9,0,0,1,8.4-15.41l-6,17.84Z" transform="translate(-179.49 -421.05)"/><path class="cls-16" d="M538.67,430.72l-11.89,35.53-6.85,20.46c-2.78-16.12,1.1-20.46,1.1-20.46a10.77,10.77,0,0,0-1.2-3.79,10.44,10.44,0,0,0-1.09-1.65c-.16-.2-.32-.38-.47-.54l11.16-33.34.58.2a16.2,16.2,0,0,1,5,2.8A7.83,7.83,0,0,1,538.67,430.72Z" transform="translate(-179.49 -421.05)"/><path class="cls-17" d="M510.53,423.74l-9.43,28.18a12,12,0,0,1-5.76,0c3.83-3.24,1.26-7.69-1.18-10.54l0,0,6.73-20.11h0a16.07,16.07,0,0,1,3.37-.14A9.22,9.22,0,0,1,510.53,423.74Z" transform="translate(-179.49 -421.05)"/><path class="cls-18" d="M597.29,492l-3.41,10.94-2,.1c-6,1.37-6.91-3.59-6.91-3.59l-.09,0-1,.21,1.46-4.68A42.28,42.28,0,0,1,597.29,492Z" transform="translate(-179.49 -421.05)"/><path class="cls-19" d="M607.77,491.32l-3.45,11.07-10.43.55-.75,0,3.39-10.88.77-.1A96.8,96.8,0,0,1,607.77,491.32Z" transform="translate(-179.49 -421.05)"/><path class="cls-20" d="M617.48,491.53l-3.22,10.34-9.94.52-1.24.06,3.46-11.11,1.23,0C611.3,491.27,614.65,491.37,617.48,491.53Z" transform="translate(-179.49 -421.05)"/><path class="cls-21" d="M625.79,492.21l0,2.23c-.88,4.05-8,7.24-8,7.24l-3.51.18-1.16.06,3.26-10.45,1.12.05C622.43,491.8,625.79,492.21,625.79,492.21Z" transform="translate(-179.49 -421.05)"/></svg>